<svg xmlns="http://www.w3.org/2000/svg" width="382" height="77" fill="none" xmlns:v="https://vecta.io/nano"><path d="M78.492 74.5h.689l-.213-.655-23.22-71.28-.112-.345h-.363-30.24-.364l-.112.346-23.112 71.28-.212.654h.688 25.056.392l.094-.38 3.254-13.228h18.437l3.148 13.224.092.384h.395 25.704zm3.869-.5v.5h.5 43.632c8.753 0 15.327-1.552 19.63-4.742l.001-.001c4.398-3.28 6.573-8.16 6.573-14.549 0-4.722-1.48-8.666-4.458-11.793-2.539-2.666-6.282-4.41-11.175-5.278 4.265-.978 7.542-2.726 9.785-5.28 2.678-3.051 4.012-6.771 4.012-11.13 0-6.465-2.25-11.348-6.798-14.556-4.516-3.256-11.335-4.88-20.374-4.952h0-.004-40.824-.5v.5V74zm42.092-25.098l.006.005.006.005c1.006.755 1.528 1.854 1.528 3.38 0 1.605-.528 2.782-1.542 3.607-.952.76-2.472 1.185-4.654 1.185h-12.352v-9.368h12.352c2.183 0 3.704.425 4.656 1.187zm48.796 22.299l.002.001c5.557 2.925 12.121 4.377 19.673 4.377 7.623 0 14.188-1.452 19.675-4.379s9.701-7.177 12.627-12.736 4.378-12.268 4.378-20.105-1.451-14.545-4.378-20.105-7.138-9.809-12.627-12.736-12.052-4.379-19.675-4.379c-7.552 0-14.116 1.453-19.673 4.378l-.002.001c-5.489 2.927-9.735 7.175-12.733 12.732l-.003.005c-2.926 5.56-4.377 12.268-4.377 20.105s1.451 14.545 4.377 20.105l.003.004c2.998 5.557 7.244 9.805 12.733 12.732zm13.941-48.329l.002-.002c1.478-1.209 3.376-1.831 5.732-1.831s4.213.622 5.614 1.824l.01.008.01.008c1.474 1.139 2.579 2.939 3.28 5.462.703 2.531 1.062 5.865 1.062 10.018 0 4.078-.358 7.413-1.062 10.019-.701 2.522-1.808 4.364-3.289 5.577-1.402 1.135-3.262 1.724-5.625 1.724-2.357 0-4.256-.587-5.732-1.724-1.413-1.215-2.52-3.059-3.292-5.583-.703-2.605-1.06-5.939-1.06-10.013 0-4.149.358-7.482 1.06-10.012.774-2.53 1.882-4.335 3.29-5.475zM305.583 2.72v-.5h-.5-25.164-.5v.5 42.552c0 3.533-.777 6.133-2.254 7.881-1.465 1.663-3.615 2.527-6.533 2.527-2.843 0-4.959-.861-6.426-2.527-1.477-1.748-2.254-4.348-2.254-7.881V2.72v-.5h-.5-25.272-.5v.5 40.608c0 10.741 2.868 18.853 8.692 24.235l.002.002c5.888 5.373 14.671 8.015 26.258 8.015s20.332-2.641 26.149-8.015c5.897-5.382 8.802-13.494 8.802-24.237V2.72zm75.915 0v-.5h-.5-69.768-.5v.5 18.468.5h.5 21.856V74v.5h.5 25.164.5V74 21.688h21.748.5v-.5V2.72zM45.244 44.232H34.738L40.04 22.16l5.205 22.072zm72.933-14.364h-10.732V20.5h10.732c2.106 0 3.594.424 4.548 1.186.932.746 1.432 1.88 1.432 3.498s-.5 2.752-1.432 3.498c-.954.763-2.442 1.186-4.548 1.186z" stroke="#fff" stroke-opacity=".3"/></svg>