<svg xmlns="http://www.w3.org/2000/svg" width="514" height="77" fill="none" xmlns:v="https://vecta.io/nano"><mask id="A" maskUnits="userSpaceOnUse" x=".133" y=".64" width="514" height="76" fill="#000"><path fill="#fff" d="M.133.64h514v76h-514z"/><path d="M70.361 52.184c-1.296 5.544-3.528 10.008-6.696 13.392-3.096 3.384-6.876 5.832-11.34 7.344-4.464 1.44-9.432 2.16-14.904 2.16-7.488 0-13.968-1.44-19.44-4.32-5.4-2.88-9.576-7.056-12.528-12.528-2.88-5.472-4.32-12.096-4.32-19.872s1.44-14.4 4.32-19.872C8.405 13.016 12.581 8.84 17.981 5.96c5.472-2.88 11.952-4.32 19.44-4.32 5.256 0 10.152.756 14.688 2.268 4.536 1.44 8.352 3.744 11.448 6.912 3.168 3.168 5.256 7.308 6.264 12.42l-21.6 8.424c-.576-4.68-1.764-7.704-3.564-9.072-1.728-1.368-3.924-2.052-6.588-2.052-2.448 0-4.536.648-6.264 1.944-1.656 1.224-2.916 3.168-3.78 5.832-.792 2.592-1.188 5.94-1.188 10.044 0 4.032.36 7.38 1.08 10.044.792 2.664 2.052 4.644 3.78 5.94 1.728 1.224 4.032 1.836 6.912 1.836 2.592 0 4.716-.756 6.372-2.268 1.656-1.584 2.7-4.068 3.132-7.452l22.248 5.724zm40.15-50.544c7.56 0 14.04 1.44 19.44 4.32s9.54 7.056 12.42 12.528 4.32 12.096 4.32 19.872-1.44 14.4-4.32 19.872-7.02 9.648-12.42 12.528-11.88 4.32-19.44 4.32c-7.488 0-13.968-1.44-19.44-4.32-5.4-2.88-9.576-7.056-12.528-12.528-2.88-5.472-4.32-12.096-4.32-19.872s1.44-14.4 4.32-19.872c2.952-5.472 7.128-9.648 12.528-12.528 5.472-2.88 11.952-4.32 19.44-4.32zm0 18.9c-2.448 0-4.464.648-6.048 1.944-1.512 1.224-2.664 3.132-3.456 5.724-.72 2.592-1.08 5.976-1.08 10.152 0 4.104.36 7.488 1.08 10.152.792 2.592 1.944 4.536 3.456 5.832 1.584 1.224 3.6 1.836 6.048 1.836s4.428-.612 5.94-1.836c1.584-1.296 2.736-3.24 3.456-5.832.72-2.664 1.08-6.048 1.08-10.152 0-4.176-.36-7.56-1.08-10.152s-1.872-4.5-3.456-5.724c-1.512-1.296-3.492-1.944-5.94-1.944zM224.938 2.72V74h-27.216l-17.064-32.4-3.888-8.748h-.216l.432 14.688V74H155.17V2.72h27.216l17.064 32.508 3.888 8.64h.216l-.432-14.688V2.72h21.816zm77.338 0v18.468h-22.248V74h-25.164V21.188h-22.356V2.72h69.768zM371.442 74h-25.704l-3.24-13.608h-19.224L319.926 74H294.87l23.112-71.28h30.24L371.442 74zm-44.388-29.268h11.772L332.994 20l-5.94 24.732zm112.869 7.452c-1.296 5.544-3.528 10.008-6.696 13.392-3.096 3.384-6.876 5.832-11.34 7.344-4.464 1.44-9.432 2.16-14.904 2.16-7.488 0-13.968-1.44-19.44-4.32-5.4-2.88-9.576-7.056-12.528-12.528-2.88-5.472-4.32-12.096-4.32-19.872s1.44-14.4 4.32-19.872c2.952-5.472 7.128-9.648 12.528-12.528 5.472-2.88 11.952-4.32 19.44-4.32 5.256 0 10.152.756 14.688 2.268 4.536 1.44 8.352 3.744 11.448 6.912 3.168 3.168 5.256 7.308 6.264 12.42l-21.6 8.424c-.576-4.68-1.764-7.704-3.564-9.072-1.728-1.368-3.924-2.052-6.588-2.052-2.448 0-4.536.648-6.264 1.944-1.656 1.224-2.916 3.168-3.78 5.832-.792 2.592-1.188 5.94-1.188 10.044 0 4.032.36 7.38 1.08 10.044.792 2.664 2.052 4.644 3.78 5.94 1.728 1.224 4.032 1.836 6.912 1.836 2.592 0 4.716-.756 6.372-2.268 1.656-1.584 2.7-4.068 3.132-7.452l22.248 5.724zM512.581 2.72v18.468h-22.248V74h-25.164V21.188h-22.356V2.72h69.768z"/></mask><path d="M70.361 52.184c-1.296 5.544-3.528 10.008-6.696 13.392-3.096 3.384-6.876 5.832-11.34 7.344-4.464 1.44-9.432 2.16-14.904 2.16-7.488 0-13.968-1.44-19.44-4.32-5.4-2.88-9.576-7.056-12.528-12.528-2.88-5.472-4.32-12.096-4.32-19.872s1.44-14.4 4.32-19.872C8.405 13.016 12.581 8.84 17.981 5.96c5.472-2.88 11.952-4.32 19.44-4.32 5.256 0 10.152.756 14.688 2.268 4.536 1.44 8.352 3.744 11.448 6.912 3.168 3.168 5.256 7.308 6.264 12.42l-21.6 8.424c-.576-4.68-1.764-7.704-3.564-9.072-1.728-1.368-3.924-2.052-6.588-2.052-2.448 0-4.536.648-6.264 1.944-1.656 1.224-2.916 3.168-3.78 5.832-.792 2.592-1.188 5.94-1.188 10.044 0 4.032.36 7.38 1.08 10.044.792 2.664 2.052 4.644 3.78 5.94 1.728 1.224 4.032 1.836 6.912 1.836 2.592 0 4.716-.756 6.372-2.268 1.656-1.584 2.7-4.068 3.132-7.452l22.248 5.724zm40.15-50.544c7.56 0 14.04 1.44 19.44 4.32s9.54 7.056 12.42 12.528 4.32 12.096 4.32 19.872-1.44 14.4-4.32 19.872-7.02 9.648-12.42 12.528-11.88 4.32-19.44 4.32c-7.488 0-13.968-1.44-19.44-4.32-5.4-2.88-9.576-7.056-12.528-12.528-2.88-5.472-4.32-12.096-4.32-19.872s1.44-14.4 4.32-19.872c2.952-5.472 7.128-9.648 12.528-12.528 5.472-2.88 11.952-4.32 19.44-4.32zm0 18.9c-2.448 0-4.464.648-6.048 1.944-1.512 1.224-2.664 3.132-3.456 5.724-.72 2.592-1.08 5.976-1.08 10.152 0 4.104.36 7.488 1.08 10.152.792 2.592 1.944 4.536 3.456 5.832 1.584 1.224 3.6 1.836 6.048 1.836s4.428-.612 5.94-1.836c1.584-1.296 2.736-3.24 3.456-5.832.72-2.664 1.08-6.048 1.08-10.152 0-4.176-.36-7.56-1.08-10.152s-1.872-4.5-3.456-5.724c-1.512-1.296-3.492-1.944-5.94-1.944zM224.938 2.72V74h-27.216l-17.064-32.4-3.888-8.748h-.216l.432 14.688V74H155.17V2.72h27.216l17.064 32.508 3.888 8.64h.216l-.432-14.688V2.72h21.816zm77.338 0v18.468h-22.248V74h-25.164V21.188h-22.356V2.72h69.768zM371.442 74h-25.704l-3.24-13.608h-19.224L319.926 74H294.87l23.112-71.28h30.24L371.442 74zm-44.388-29.268h11.772L332.994 20l-5.94 24.732zm112.869 7.452c-1.296 5.544-3.528 10.008-6.696 13.392-3.096 3.384-6.876 5.832-11.34 7.344-4.464 1.44-9.432 2.16-14.904 2.16-7.488 0-13.968-1.44-19.44-4.32-5.4-2.88-9.576-7.056-12.528-12.528-2.88-5.472-4.32-12.096-4.32-19.872s1.44-14.4 4.32-19.872c2.952-5.472 7.128-9.648 12.528-12.528 5.472-2.88 11.952-4.32 19.44-4.32 5.256 0 10.152.756 14.688 2.268 4.536 1.44 8.352 3.744 11.448 6.912 3.168 3.168 5.256 7.308 6.264 12.42l-21.6 8.424c-.576-4.68-1.764-7.704-3.564-9.072-1.728-1.368-3.924-2.052-6.588-2.052-2.448 0-4.536.648-6.264 1.944-1.656 1.224-2.916 3.168-3.78 5.832-.792 2.592-1.188 5.94-1.188 10.044 0 4.032.36 7.38 1.08 10.044.792 2.664 2.052 4.644 3.78 5.94 1.728 1.224 4.032 1.836 6.912 1.836 2.592 0 4.716-.756 6.372-2.268 1.656-1.584 2.7-4.068 3.132-7.452l22.248 5.724zM512.581 2.72v18.468h-22.248V74h-25.164V21.188h-22.356V2.72h69.768z" stroke="#fff" stroke-opacity=".3" stroke-width="2" mask="url(#A)"/></svg>